<?xml version="1.0" standalone="no"?>
<!DOCTYPE svg PUBLIC "-//W3C//DTD SVG 20010904//EN"
 "http://www.w3.org/TR/2001/REC-SVG-20010904/DTD/svg10.dtd">
<svg version="1.0" xmlns="http://www.w3.org/2000/svg"
 width="1200.000000pt" height="1200.000000pt" viewBox="0 0 1200.000000 1200.000000"
 preserveAspectRatio="xMidYMid meet">

<g transform="translate(0.000000,1200.000000) scale(0.100000,-0.100000)"
fill="#000000" stroke="none">
<path d="M3890 7005 l0 -2745 55 0 c48 0 55 -2 55 -20 0 -30 56 -87 114 -114
76 -36 158 -46 355 -41 146 3 176 6 192 21 16 15 33 16 112 11 146 -10 301 33
392 108 l43 35 1075 0 c960 0 1077 -2 1106 -16 40 -20 115 -20 146 0 21 14 66
16 305 16 l280 0 0 2745 0 2745 -2115 0 -2115 0 0 -2745z m4100 -5 l0 -2630
-194 0 c-143 0 -196 3 -204 12 -40 51 -232 751 -259 943 -8 61 -39 265 -69
454 -31 188 -54 344 -52 346 2 1 61 17 131 35 117 29 136 37 208 89 44 31 79
63 79 72 0 9 -12 25 -27 35 -16 10 -34 24 -41 31 -19 19 -57 17 -240 -14 -155
-26 -164 -27 -177 -10 -23 31 -54 226 -105 662 -11 94 -29 220 -39 280 -11 61
-24 146 -30 190 -76 561 -133 861 -195 1026 -13 35 -29 91 -36 124 -7 33 -28
90 -46 127 -47 93 -79 195 -100 313 -16 86 -23 104 -51 136 -42 47 -84 66
-180 85 -58 11 -93 25 -146 59 -41 26 -91 49 -123 55 -50 10 -66 9 -172 -18
-64 -17 -154 -38 -200 -47 -114 -23 -138 -35 -202 -98 -42 -42 -64 -56 -96
-61 -23 -4 -51 -17 -61 -29 -24 -26 -98 -303 -143 -532 -18 -88 -78 -338 -135
-555 -114 -432 -142 -559 -152 -677 -4 -51 -16 -104 -36 -153 -53 -132 -136
-421 -157 -544 -11 -65 -29 -139 -40 -163 -11 -25 -20 -53 -20 -63 0 -10 -12
-48 -26 -86 -14 -37 -29 -104 -35 -149 -5 -44 -22 -114 -39 -158 -36 -94 -217
-748 -261 -941 -67 -301 -242 -765 -291 -774 -17 -3 -18 127 -18 2627 l0 2631
1990 0 1990 0 0 -2630z m-1491 1084 c12 -87 32 -292 46 -454 43 -500 84 -772
162 -1081 26 -105 43 -194 40 -204 -7 -16 -18 -17 -130 -11 -67 4 -171 14
-232 23 -60 9 -180 18 -265 20 -210 5 -204 3 -197 61 3 26 21 99 40 162 48
158 88 326 141 591 47 231 119 496 154 565 11 21 54 147 96 278 42 131 82 246
88 254 20 24 34 -27 57 -204z m224 -2013 c31 -4 64 -14 72 -22 8 -8 24 -82 40
-184 51 -326 132 -725 232 -1140 50 -209 65 -246 125 -311 l41 -44 -952 0
c-523 0 -951 2 -951 4 0 2 11 23 24 47 14 24 32 78 40 120 17 80 37 134 109
294 26 58 60 161 81 247 20 81 56 200 80 265 24 65 54 161 66 213 62 261 103
385 134 404 11 8 82 21 156 30 184 23 293 42 370 65 69 21 221 26 333 12z"/>
<path d="M5275 2848 c-48 -41 -86 -99 -115 -173 -13 -33 -28 -65 -33 -72 -13
-18 -91 -27 -116 -14 -25 14 -29 59 -6 67 8 4 15 15 15 25 0 25 -41 26 -62 2
-32 -37 -40 -62 -29 -96 9 -27 19 -35 56 -46 26 -8 60 -10 85 -6 48 8 47 15
20 -123 -17 -88 -20 -144 -20 -392 l0 -289 -57 -28 c-32 -15 -77 -47 -100 -70
-39 -39 -43 -47 -43 -92 0 -65 31 -121 68 -122 95 -4 166 19 227 74 l48 41 41
-16 c22 -9 93 -38 156 -63 112 -46 117 -47 221 -47 71 0 115 4 132 13 13 8 44
25 68 38 47 25 79 58 73 75 -3 7 -26 10 -58 8 -137 -9 -407 58 -519 129 -41
26 -48 34 -42 52 16 47 14 217 -5 449 -11 134 -24 261 -29 283 -6 22 -11 61
-11 86 0 42 3 47 38 67 58 33 129 113 137 156 19 100 -65 151 -140 84z m85
-37 c0 -36 -21 -76 -63 -118 -22 -24 -45 -43 -49 -43 -29 0 16 131 55 162 30
24 57 23 57 -1z m-314 -1219 c9 -5 6 -22 -8 -59 -21 -56 -53 -77 -87 -56 -25
16 -26 78 -2 102 21 21 74 28 97 13z"/>
<path d="M7350 2731 c-39 -14 -47 -22 -63 -66 -32 -83 -79 -381 -72 -450 18
-185 37 -225 128 -272 l50 -25 55 18 c45 16 63 29 99 74 24 30 59 85 79 123
38 72 49 83 40 40 -3 -16 -15 -107 -25 -204 l-20 -177 -52 -53 c-64 -65 -88
-118 -89 -187 0 -113 42 -153 139 -133 114 23 155 75 215 273 24 79 29 87 56
93 36 8 82 43 74 57 -4 6 -24 7 -52 3 l-45 -7 7 39 c4 21 11 81 16 133 5 52
16 149 25 215 8 65 15 154 15 196 l0 76 -44 41 c-50 46 -83 58 -123 45 -30
-10 -44 -50 -62 -170 -8 -52 -22 -81 -97 -200 -89 -140 -121 -183 -136 -183
-21 0 1 219 42 434 33 171 33 177 -25 236 -54 54 -65 57 -135 31z m250 -1132
c-6 -56 -17 -100 -25 -109 -47 -46 -47 100 -1 170 15 23 30 40 32 37 2 -2 0
-46 -6 -98z"/>
<path d="M4402 2730 c-19 -4 -49 -16 -68 -26 -39 -21 -39 -20 -98 -274 -20
-85 -45 -186 -56 -225 -24 -85 -104 -382 -120 -445 -7 -25 -23 -73 -37 -108
-34 -85 -27 -92 86 -91 166 2 179 16 257 278 19 63 39 120 44 127 10 11 37 16
152 31 54 6 59 0 72 -92 4 -27 19 -97 32 -155 19 -78 31 -112 51 -132 41 -42
96 -33 73 12 -18 34 -79 323 -80 372 0 3 12 9 28 13 36 8 66 31 57 45 -4 7
-24 8 -54 4 l-48 -6 -12 83 c-34 247 -56 362 -86 453 -18 55 -39 103 -46 107
-8 3 -29 13 -47 22 -36 18 -49 19 -100 7z m148 -259 c0 -56 35 -322 53 -408 2
-7 -162 -5 -174 3 -15 9 95 414 113 414 4 0 8 -4 8 -9z"/>
<path d="M6320 2694 c-75 -24 -174 -28 -339 -14 -163 13 -213 8 -219 -22 -2
-11 14 -18 67 -26 38 -7 81 -12 95 -12 14 0 26 -2 26 -4 0 -2 -5 -27 -10 -56
-6 -29 -12 -116 -15 -194 -2 -78 -9 -177 -16 -221 -6 -44 -12 -173 -13 -287
l-1 -206 -67 -4 c-78 -4 -112 -24 -82 -49 14 -11 68 -14 263 -16 135 -1 254 0
264 3 9 3 17 14 17 24 0 18 -5 20 -138 36 -49 6 -53 9 -48 30 18 69 26 201 31
479 3 171 9 328 15 350 5 22 7 54 4 70 l-5 31 73 12 c85 15 162 49 166 75 4
20 -7 20 -68 1z"/>
<path d="M6664 2693 c-28 -3 -49 -12 -65 -29 -24 -25 -24 -27 -33 -362 -11
-420 -2 -666 25 -693 29 -29 64 -33 135 -13 109 31 109 32 109 316 0 130 3
240 8 244 4 4 31 11 61 15 68 9 146 43 146 63 0 13 -15 16 -82 17 -127 1 -121
-6 -120 140 2 181 -1 175 85 193 40 8 117 22 172 31 125 22 127 23 123 49 -3
19 -9 21 -73 20 -38 0 -131 -4 -205 -8 -113 -7 -144 -6 -189 8 -30 9 -55 15
-55 14 -1 -1 -20 -3 -42 -5z"/>
</g>
</svg>
